# xmcd
#
# Track frame offsets:
#	150
#	34177
#	71357
#	104575
#	153780
#	206425
#	270622
#
# Disc length: 3834 seconds
# Revision: 0
# Processed by: cddbd v1.5.2PL0 Copyright (c) Steve Scherf et al.
# Submitted via: dBpowerAMP V12.0
#
DISCID=580ef807
DTITLE=Various Artist - Variations On A Theme - Red House
DYEAR=1970
DGENRE=Blues
TTITLE0=Jimi Hendrix - Red House [Berkeley, CA, 30-5-70]
TTITLE1=The Jimi Hendrix Experience - Red House [Newport Pop, Devonshire Downs, CA, 20-6-69]
TTITLE2=The Jimi Hendrix Experience with Lee Michaels (organ) - Red House [studio, Hollywood, 1969]
TTITLE3=The Jimi Hendrix Experience - Red House [L.A. Forum, CA, 26-4-69]
TTITLE4=The Jimi Hendrix Experience - Red House [Royal Albert Hall, London, 24-2-69]
TTITLE5=The Jimi Hendrix Experience - Red House [Winterland, San Francisco, CA, 10-10-68]
TTITLE6=John Lee Hooker - Red House [studio, Hollywood, 20-3-89]
EXTD=
EXTT0=
EXTT1=
EXTT2=
EXTT3=
EXTT4=
EXTT5=
EXTT6=
PLAYORDER=
